<?xml version="1.0"?>
<svg xmlns="http://www.w3.org/2000/svg" viewBox="0 0 512 512">
<g fill="none" stroke="#111" stroke-width="6" stroke-linecap="round" stroke-linejoin="round">
<path fill="#222" d="M256 170 C235 175 220 210 220 270 C220 330 238 370 256 390 C274 370 292 330 292 270 C292 210 277 175 256 170z"/>
<path fill="#222" d="M220 215 C150 170 80 170 30 205 C95 210 150 235 220 255z"/>
<path fill="#222" d="M292 215 C362 170 432 170 482 205 C417 210 362 235 292 255z"/>
<path fill="#f2f2e8" d="M220 185 C235 195 245 195 256 194 C245 208 232 212 220 205z"/>
<path fill="#f2f2e8" d="M292 185 C277 195 267 195 256 194 C267 208 280 212 292 205z"/>
<path fill="#b96a6a" d="M220 150 C206 132 186 132 176 150 C182 164 197 170 214 166z"/>
<path fill="#b96a6a" d="M292 150 C306 132 326 132 336 150 C330 164 315 170 298 166z"/>
<path d="M176 150 q6 -12 16 -10 q-4 5 0 10 q8 -7 16 -2"/>
<path d="M336 150 q-6 -12 -16 -10 q4 5 0 10 q-8 -7 -16 -2"/>
<circle cx="192" cy="154" r="3" fill="#111"/>
<circle cx="320" cy="154" r="3" fill="#111"/>
<path d="M172 156 q-12 0 -18 8 q14 2 20-3z" fill="#999"/>
<path d="M340 156 q12 0 18 8 q-14 2 -20-3z" fill="#999"/>
</g>
</svg>